<?xml version="1.0" encoding="utf-8"?>
<!-- Generator: Adobe Illustrator 19.0.0, SVG Export Plug-In . SVG Version: 6.00 Build 0)  -->
<svg version="1.1" id="Layer_1" xmlns="http://www.w3.org/2000/svg" xmlns:xlink="http://www.w3.org/1999/xlink" x="0px" y="0px"
	 viewBox="0 0 56.8 56.4" style="enable-background:new 0 0 56.8 56.4;" xml:space="preserve">
<style type="text/css">
	.st0{fill:#096A37;}
	.st1{fill:#231F20;}
	.st2{fill:#F39123;}
	.st3{fill:#E72629;}
</style>
<g id="XMLID_24_">
	<g id="XMLID_25_">
		<g id="XMLID_226_">
			<path id="XMLID_229_" class="st0" d="M35.2,51.3c-0.8-3.1-1.1-6-1-8.9l-2.3-2.3l0,0l0,0c-0.4,3.7-0.1,7.6,1,11.7
				c0.3,1.3,0.7,2.7,1.2,4c0.8-0.2,1.6-0.4,2.4-0.6C36,53.9,35.6,52.6,35.2,51.3 M55.9,21.4c-0.4-1.5-1.7-2.4-3.2-2.2
				c-5.6,0.6-10.5,2.9-14.2,6.6c-2.8,2.8-4.7,6.1-5.8,10c0.1,0.1,0.1,0.1,0.2,0.2l0.5,0.5h1.6c1-3.5,2.7-6.5,5.2-9
				C44.2,23.5,49.6,21.4,55.9,21.4L55.9,21.4"/>
			<path id="XMLID_232_" class="st0" d="M55.2,23.5c-0.5-0.3-1-0.4-1.5-0.3c-4.9,0.4-9.1,2.3-12.2,5.5c-2.2,2.2-3.7,4.8-4.6,7.8h2.6
				c0.8-2.4,2.1-4.4,3.8-6.1c3.2-3.2,7.6-4.8,12.9-4.8c0.2,0,0.4,0,0.6,0C56.5,25.1,56.1,24.1,55.2,23.5 M39.2,50.3
				c-0.5-1.9-0.8-3.7-0.9-5.5c-0.2,0.1-0.5,0.2-0.8,0.2c-0.5,0-1-0.2-1.3-0.5L35.8,44c0.1,2.2,0.4,4.5,1,6.8
				c0.3,1.3,0.7,2.6,1.2,3.9c0.8-0.3,1.5-0.6,2.3-0.9C39.8,52.6,39.5,51.4,39.2,50.3"/>
			<path id="XMLID_235_" class="st0" d="M43.1,49.3c-0.8-3.4-1-6.5-0.6-9.2h-2.5c-0.4,2.9-0.2,6.2,0.7,9.8c0.3,1.1,0.6,2.1,1,3.2
				c0.7-0.4,1.4-0.8,2.1-1.3C43.6,51,43.3,50.1,43.1,49.3 M54.3,27.1c-4,0.3-7.5,1.8-10,4.3c-1.4,1.4-2.5,3.1-3.2,5h2.7
				c0.6-1.2,1.3-2.3,2.3-3.2c2.4-2.4,5.9-3.7,10-3.7c0.3,0,0.5,0,0.8,0l0,0C56.8,28.1,55.6,27,54.3,27.1"/>
			<path id="XMLID_239_" class="st0" d="M24.6,37.1L24.6,37.1L24.6,37.1L24.6,37.1 M18.5,25.8c-3.8-3.8-8.7-6-14.4-6.6
				C2.7,19,1.3,20,0.9,21.4l0,0c0,0,0.1,0,0.1,0c6.3,0,11.8,2.1,15.7,6c2.5,2.5,4.2,5.5,5.1,8.9h2l0.4-0.4
				C23.3,32,21.3,28.6,18.5,25.8 M25.1,40.3l-2.3,2.3c0.1,2.8-0.3,5.7-1,8.8c-0.3,1.3-0.7,2.6-1.2,4c0.8,0.2,1.6,0.4,2.4,0.6
				c0.5-1.3,0.9-2.6,1.2-4C25.2,47.8,25.5,43.9,25.1,40.3"/>
			<path id="XMLID_242_" class="st0" d="M16.9,40.1h-2.5c0.5,2.7,0.3,5.8-0.6,9.2c-0.2,0.9-0.5,1.7-0.8,2.6c0.7,0.4,1.4,0.9,2.1,1.2
				c0.4-1.1,0.7-2.2,1-3.2C17.2,46.4,17.4,43.1,16.9,40.1 M12.8,31.5c-2.6-2.6-6.1-4-10.2-4.3c-1.4-0.1-2.5,1-2.4,2.4l0,0
				c0.3,0,0.6,0,0.9,0c4.1,0,7.6,1.2,10,3.7c0.9,0.9,1.7,2,2.3,3.2H16C15.2,34.5,14.2,32.9,12.8,31.5"/>
			<path id="XMLID_243_" class="st0" d="M12.2,17v2.6c-3-1.3-6.4-2.1-10.1-2.2l0,0c0.6-1.5,2.1-2.3,3.7-2.1
				C8.1,15.6,10.2,16.2,12.2,17"/>
			<path id="XMLID_244_" class="st0" d="M54.6,17.4c-3.6,0.1-6.9,0.9-9.9,2.2v-2.6c2-0.8,4.1-1.3,6.3-1.7C52.5,15,54,15.9,54.6,17.4
				L54.6,17.4z"/>
			<path id="XMLID_247_" class="st0" d="M15.6,28.8c-3.1-3.1-7.3-5-12.2-5.5c-0.5,0-1.1,0.1-1.6,0.3c-1,0.6-1.4,1.7-1.4,2
				c0.2,0,0.4,0,0.6,0c5.2,0,9.7,1.7,12.9,4.8c1.6,1.6,2.9,3.6,3.7,5.9h2.6C19.2,33.5,17.7,30.9,15.6,28.8 M20.6,44.7
				c-0.4,0.4-0.8,0.5-1.3,0.5c-0.2,0-0.5,0-0.7-0.1c-0.1,1.7-0.4,3.5-0.9,5.3c-0.3,1.2-0.7,2.4-1.1,3.5c0.7,0.3,1.5,0.6,2.3,0.9
				c0.5-1.3,0.9-2.6,1.2-3.9c0.6-2.4,0.9-4.7,1-6.8L20.6,44.7z"/>
			<polygon id="XMLID_248_" class="st1" points="21,40.1 20.9,40.2 20.9,40.1 			"/>
			<path id="XMLID_249_" class="st0" d="M24.3,40.1l-1.5,1.5l-1.6,1.6l-1,1c-0.4,0.4-1,0.4-1.5,0.2c-0.1,0-0.1-0.1-0.2-0.2
				c-0.2-0.2-0.3-0.5-0.3-0.8c0-0.3,0.1-0.6,0.3-0.8l2.4-2.4l0.1-0.1H24.3z"/>
			<path id="XMLID_250_" class="st0" d="M26.9,39.4H13.7c-0.4,0-0.8-0.2-1-0.5c-0.1-0.2-0.2-0.4-0.2-0.6v0c0-0.3,0.1-0.6,0.3-0.8
				c0.2-0.2,0.5-0.3,0.8-0.3h10.9l0,0l1.9,1.9L26.9,39.4z"/>
			<path id="XMLID_251_" class="st2" d="M30.1,40.5c0,0.3,0,0.6-0.1,0.9v15h-3.2V41.1c0-0.3,0-0.7-0.1-1h0.9
				c0.5,0.4,1.1,0.5,1.7,0.5C29.7,40.7,29.8,40.6,30.1,40.5"/>
			<path id="XMLID_252_" class="st2" d="M33.9,29c-1.1,1.9-2,3.9-2.6,6.1c-0.1,0-0.3,0-0.4,0c-0.8,0-1.6,0.3-2.1,0.9l0,0
				c-0.6-0.6-1.3-0.9-2.1-0.9c-0.3,0-0.6,0-0.8,0.1c-0.6-2.2-1.5-4.3-2.7-6.2l2-1.4c0.7,1,1.3,2.1,1.9,3.3V28h3.2v2.8
				c0.5-1.1,1.2-2.2,1.8-3.3L33.9,29z"/>
			<path id="XMLID_253_" class="st2" d="M30.2,4.7V2.9c0-0.6-0.2-1.3-0.7-1.8l-0.9-1c-0.1-0.1-0.2-0.1-0.3,0l-0.9,1
				c-0.4,0.5-0.7,1.1-0.7,1.8v1.9c0,0.6,0.2,1.3,0.7,1.8l0.9,1c0.1,0.1,0.2,0.1,0.3,0l0.9-1C29.9,6,30.2,5.4,30.2,4.7"/>
			<path id="XMLID_254_" class="st2" d="M39.1,6.2V4.3c0-0.6-0.2-1.3-0.7-1.8l-0.9-1c-0.1-0.1-0.2-0.1-0.3,0l-0.9,1
				c-0.4,0.5-0.7,1.1-0.7,1.8v1.9c0,0.6,0.2,1.3,0.7,1.8l0.9,1c0.1,0.1,0.2,0.1,0.3,0l0.9-1C38.8,7.5,39.1,6.8,39.1,6.2"/>
			<path id="XMLID_255_" class="st2" d="M32.7,9.6L34,8.2c0.5-0.5,0.7-1.1,0.8-1.7l0.1-1.4c0-0.1-0.1-0.2-0.2-0.2L33.3,5
				c-0.6,0-1.3,0.3-1.7,0.8l-1.3,1.3c-0.5,0.5-0.7,1.1-0.8,1.7l-0.1,1.4c0,0.1,0.1,0.2,0.2,0.2l1.4-0.1C31.7,10.3,32.3,10,32.7,9.6"
				/>
			<path id="XMLID_256_" class="st2" d="M32.7,15.1l1.3-1.3c0.5-0.5,0.7-1.1,0.8-1.7l0.1-1.4c0-0.1-0.1-0.2-0.2-0.2l-1.4,0.1
				c-0.6,0-1.3,0.3-1.7,0.8l-1.3,1.3c-0.5,0.5-0.7,1.1-0.8,1.7l-0.1,1.4c0,0.1,0.1,0.2,0.2,0.2l1.4-0.1
				C31.7,15.8,32.3,15.5,32.7,15.1"/>
			<path id="XMLID_257_" class="st2" d="M32.7,20.6l1.3-1.3c0.5-0.5,0.7-1.1,0.8-1.7l0.1-1.4c0-0.1-0.1-0.2-0.2-0.2l-1.4,0.1
				c-0.6,0-1.3,0.3-1.7,0.8l-1.3,1.3c-0.5,0.5-0.7,1.1-0.8,1.7l-0.1,1.4c0,0.1,0.1,0.2,0.2,0.2l1.4-0.1
				C31.7,21.3,32.3,21.1,32.7,20.6"/>
			<path id="XMLID_258_" class="st2" d="M32.7,26.1l1.3-1.3c0.5-0.5,0.7-1.1,0.8-1.7l0.1-1.4c0-0.1-0.1-0.2-0.2-0.2l-1.4,0.1
				c-0.6,0-1.3,0.3-1.7,0.8l-1.3,1.3c-0.5,0.5-0.7,1.1-0.8,1.7l-0.1,1.4c0,0.1,0.1,0.2,0.2,0.2l1.4-0.1
				C31.7,26.9,32.3,26.6,32.7,26.1"/>
			<path id="XMLID_259_" class="st2" d="M40.9,11.7l1.3-1.3c0.5-0.5,0.7-1.1,0.8-1.7L43,7.2C43,7.1,43,7,42.8,7l-1.4,0.1
				c-0.6,0-1.3,0.3-1.7,0.8l-1.3,1.3c-0.5,0.5-0.7,1.1-0.8,1.7l-0.1,1.4c0,0.1,0.1,0.2,0.2,0.2l1.4-0.1
				C39.8,12.4,40.4,12.1,40.9,11.7"/>
			<path id="XMLID_260_" class="st2" d="M40.9,17.1l1.3-1.3c0.5-0.5,0.7-1.1,0.8-1.7l0.1-1.4c0-0.1-0.1-0.2-0.2-0.2l-1.4,0.1
				c-0.6,0-1.3,0.3-1.7,0.8l-1.3,1.3c-0.5,0.5-0.7,1.1-0.8,1.7l-0.1,1.4c0,0.1,0.1,0.2,0.2,0.2l1.4-0.1
				C39.8,17.8,40.4,17.6,40.9,17.1"/>
			<path id="XMLID_261_" class="st2" d="M40.9,22.6l1.3-1.3c0.5-0.5,0.7-1.1,0.8-1.7l0.1-1.4c0-0.1-0.1-0.2-0.2-0.2L41.5,18
				c-0.6,0-1.3,0.3-1.7,0.8l-1.3,1.3c-0.5,0.5-0.7,1.1-0.8,1.7l-0.1,1.4c0,0.1,0.1,0.2,0.2,0.2l1.4-0.1C39.8,23.3,40.4,23,40.9,22.6
				"/>
			<path id="XMLID_262_" class="st2" d="M17.9,6.2V4.3c0-0.6,0.2-1.3,0.7-1.8l0.9-1c0.1-0.1,0.2-0.1,0.3,0l0.9,1
				c0.4,0.5,0.7,1.1,0.7,1.8v1.9c0,0.6-0.2,1.3-0.7,1.8l-0.9,1c-0.1,0.1-0.2,0.1-0.3,0l-0.9-1C18.2,7.5,17.9,6.8,17.9,6.2"/>
			<path id="XMLID_263_" class="st2" d="M24.3,9.6l-1.3-1.3c-0.5-0.5-0.7-1.1-0.8-1.7l-0.1-1.4c0-0.1,0.1-0.2,0.2-0.2L23.7,5
				c0.6,0,1.3,0.3,1.7,0.8l1.3,1.3c0.5,0.5,0.7,1.1,0.8,1.7l0.1,1.4c0,0.1-0.1,0.2-0.2,0.2L26,10.3C25.3,10.3,24.7,10,24.3,9.6"/>
			<path id="XMLID_264_" class="st2" d="M24.3,15.1l-1.3-1.3c-0.5-0.5-0.7-1.1-0.8-1.7l-0.1-1.4c0-0.1,0.1-0.2,0.2-0.2l1.4,0.1
				c0.6,0,1.3,0.3,1.7,0.8l1.3,1.3c0.5,0.5,0.7,1.1,0.8,1.7l0.1,1.4c0,0.1-0.1,0.2-0.2,0.2L26,15.8C25.3,15.8,24.7,15.5,24.3,15.1"
				/>
			<path id="XMLID_265_" class="st2" d="M24.3,20.6l-1.3-1.3c-0.5-0.5-0.7-1.1-0.8-1.7l-0.1-1.4c0-0.1,0.1-0.2,0.2-0.2l1.4,0.1
				c0.6,0,1.3,0.3,1.7,0.8l1.3,1.3c0.5,0.5,0.7,1.1,0.8,1.7l0.1,1.4c0,0.1-0.1,0.2-0.2,0.2L26,21.4C25.3,21.3,24.7,21.1,24.3,20.6"
				/>
			<path id="XMLID_266_" class="st2" d="M24.3,26.1l-1.3-1.3c-0.5-0.5-0.7-1.1-0.8-1.7l-0.1-1.4c0-0.1,0.1-0.2,0.2-0.2l1.4,0.1
				c0.6,0,1.3,0.3,1.7,0.8l1.3,1.3c0.5,0.5,0.7,1.1,0.8,1.7l0.1,1.4c0,0.1-0.1,0.2-0.2,0.2L26,26.9C25.3,26.9,24.7,26.6,24.3,26.1"
				/>
			<path id="XMLID_267_" class="st2" d="M16.1,11.7l-1.3-1.3c-0.5-0.5-0.7-1.1-0.8-1.7l-0.1-1.4C13.9,7.1,14,7,14.1,7l1.4,0.1
				c0.6,0,1.3,0.3,1.7,0.8l1.3,1.3c0.5,0.5,0.7,1.1,0.8,1.7l0.1,1.4c0,0.1-0.1,0.2-0.2,0.2l-1.4-0.1C17.2,12.4,16.6,12.1,16.1,11.7"
				/>
			<path id="XMLID_268_" class="st2" d="M16.1,17.1l-1.3-1.3c-0.5-0.5-0.7-1.1-0.8-1.7l-0.1-1.4c0-0.1,0.1-0.2,0.2-0.2l1.4,0.1
				c0.6,0,1.3,0.3,1.7,0.8l1.3,1.3c0.5,0.5,0.7,1.1,0.8,1.7l0.1,1.4c0,0.1-0.1,0.2-0.2,0.2l-1.4-0.1C17.2,17.8,16.6,17.6,16.1,17.1"
				/>
			<path id="XMLID_269_" class="st2" d="M16.1,22.6l-1.3-1.3c-0.5-0.5-0.7-1.1-0.8-1.7l-0.1-1.4c0-0.1,0.1-0.2,0.2-0.2l1.4,0.1
				c0.6,0,1.3,0.3,1.7,0.8l1.3,1.3c0.5,0.5,0.7,1.1,0.8,1.7l0.1,1.4c0,0.1-0.1,0.2-0.2,0.2l-1.4-0.1C17.2,23.3,16.6,23,16.1,22.6"/>
			<polyline id="XMLID_270_" class="st3" points="24.6,37.2 24.6,37.1 24.6,37.1 24.6,37.2 			"/>
			<path id="XMLID_271_" class="st0" d="M44.8,38.3c0,0.3-0.1,0.6-0.3,0.8c-0.2,0.2-0.5,0.3-0.8,0.3h-7.2l-0.3-0.3l-1.4-1.4
				l-0.6-0.6h9.5C44.3,37.1,44.8,37.6,44.8,38.3"/>
			<polyline id="XMLID_272_" class="st1" points="24.6,37.1 24.6,37.1 24.6,37.2 24.6,37.1 			"/>
			<path id="XMLID_273_" class="st0" d="M31,39.3c0,0-0.1,0.1-0.2,0.1c-0.2,0.1-0.4,0.3-0.6,0.3C30,39.9,29.7,40,29.4,40
				c-0.5,0-1.1-0.2-1.5-0.5c-0.1,0-0.1-0.1-0.2-0.1l-1.4-1.4l-0.7-0.7l-0.7-0.7l0,0c0.3-0.3,0.6-0.5,1-0.6c0.2-0.1,0.4-0.1,0.6-0.1
				c0.6,0,1.2,0.2,1.6,0.7l0,0L31,39.3z"/>
			<path id="XMLID_274_" class="st0" d="M38.3,43.9C38.3,43.9,38.3,44,38.3,43.9c-0.3,0.2-0.6,0.3-0.8,0.3c-0.3,0-0.6-0.1-0.8-0.3
				L35.8,43l-1.6-1.6l-2-2L32,39.2l-1.4-1.4l-0.7-0.7l-0.7-0.7c0.5-0.5,1-0.7,1.6-0.7c0.1,0,0.2,0,0.3,0c0.5,0.1,1,0.3,1.4,0.7l0,0
				l0.1,0.1l3.5,3.5l0.2,0.2l2.1,2.1l0.1,0.1C38.8,42.7,38.8,43.5,38.3,43.9"/>
		</g>
	</g>
</g>
</svg>
